<?xml version="1.0" encoding="UTF-8"?>
<svg version="1.1" xmlns="http://www.w3.org/2000/svg" width="512" height="512">
<path d="M0 0 C1.14816193 -0.00101212 1.14816193 -0.00101212 2.31951904 -0.00204468 C13.36982033 0.01346523 23.89974562 0.33338153 34.625 3.25 C35.2957959 3.43224121 35.9665918 3.61448242 36.65771484 3.80224609 C62.96876523 11.11121043 85.30726228 24.09896031 104.625 43.25 C105.48738281 44.09949219 106.34976563 44.94898438 107.23828125 45.82421875 C115.73785499 54.6762469 132.625 73.3403691 132.625 86.25 C134.1409375 84.9815625 134.1409375 84.9815625 135.6875 83.6875 C136.44804687 83.06617187 137.20859375 82.44484375 137.9921875 81.8046875 C140.18049595 79.68131401 141.55066001 77.947089 143.1953125 75.4453125 C147.02087196 70.13742753 150.91520016 65.18869201 157.66577148 63.84326172 C169.20984103 62.45264974 181.06875452 63.37906088 192.625 64.25 C192.61611755 63.67894531 192.60723511 63.10789063 192.5980835 62.51953125 C192.5092496 56.54941874 192.44911694 50.5794955 192.40527344 44.60888672 C192.38521954 42.38387418 192.35796935 40.15891393 192.32324219 37.93408203 C192.27445066 34.72675635 192.25196838 31.52013049 192.234375 28.3125 C192.21372986 27.32572266 192.19308472 26.33894531 192.17181396 25.32226562 C192.1694439 17.94535594 193.68326439 12.60697065 198.58984375 7.0078125 C199.24082031 6.46898437 199.89179688 5.93015625 200.5625 5.375 C201.21089844 4.82070312 201.85929687 4.26640625 202.52734375 3.6953125 C206.54335022 0.92823169 210.11226086 0.00033305 214.95588684 -0.01742554 C216.01138229 -0.02595551 217.06687775 -0.03448547 218.15435791 -0.04327393 C219.30200623 -0.04236755 220.44965454 -0.04146118 221.63208008 -0.04052734 C222.84890976 -0.04724457 224.06573944 -0.05396179 225.31944275 -0.06088257 C228.65023259 -0.07661128 231.98077305 -0.08323679 235.3115828 -0.08451414 C237.3953363 -0.08593805 239.47906386 -0.09021221 241.5628109 -0.09550858 C248.84047473 -0.1140007 256.11806541 -0.12218035 263.39575195 -0.12060547 C270.16626616 -0.11940476 276.93646122 -0.14049496 283.7068947 -0.1720928 C289.53044208 -0.19829728 295.35388552 -0.208971 301.17749137 -0.20769465 C304.650875 -0.20718617 308.12397497 -0.21280531 311.59729958 -0.23405075 C315.47490372 -0.25712232 319.35207484 -0.24788669 323.22973633 -0.23583984 C324.37131195 -0.24707886 325.51288757 -0.25831787 326.6890564 -0.26989746 C334.46960182 -0.20855011 339.85326461 0.94480331 345.8671875 6.21484375 C346.40601563 6.86582031 346.94484375 7.51679688 347.5 8.1875 C348.05429687 8.83589844 348.60859375 9.48429687 349.1796875 10.15234375 C353.08746992 15.82390905 352.92158455 21.11854191 352.91552734 27.78833008 C352.92224457 28.84910263 352.92896179 29.90987518 352.93588257 31.00279236 C352.95487519 34.50841969 352.9587875 38.01385567 352.9609375 41.51953125 C352.96736477 43.95944802 352.97409308 46.39936402 352.98110962 48.83927917 C352.99308572 53.95447577 352.99679011 59.06960482 352.99560547 64.18481445 C352.99540232 70.73183957 353.02269955 77.27843043 353.05714989 83.82535267 C353.07941358 88.86547323 353.08344315 93.90548922 353.08238602 98.94565392 C353.08474295 101.35892927 353.09357163 103.77220747 353.10905075 106.18543434 C353.1286981 109.56509213 353.12287664 112.94381268 353.11083984 116.32348633 C353.12207886 117.31545013 353.13331787 118.30741394 353.14489746 119.32943726 C353.07913511 126.61457206 351.50619673 131.96211347 346.66015625 137.4921875 C346.00917969 138.03101563 345.35820312 138.56984375 344.6875 139.125 C344.03910156 139.67929688 343.39070313 140.23359375 342.72265625 140.8046875 C338.70664978 143.57176831 335.13773914 144.49966695 330.29411316 144.51742554 C329.23861771 144.52595551 328.18312225 144.53448547 327.09564209 144.54327393 C325.94799377 144.54236755 324.80034546 144.54146118 323.61791992 144.54052734 C322.40109024 144.54724457 321.18426056 144.55396179 319.93055725 144.56088257 C316.59976741 144.57661128 313.26922695 144.58323679 309.9384172 144.58451414 C307.8546637 144.58593805 305.77093614 144.59021221 303.6871891 144.59550858 C296.40952527 144.6140007 289.13193459 144.62218035 281.85424805 144.62060547 C275.08373384 144.61940476 268.31353878 144.64049496 261.5431053 144.6720928 C255.71955792 144.69829728 249.89611448 144.708971 244.07250863 144.70769465 C240.599125 144.70718617 237.12602503 144.71280531 233.65270042 144.73405075 C229.77509628 144.75712232 225.89792516 144.74788669 222.02026367 144.73583984 C220.87868805 144.74707886 219.73711243 144.75831787 218.5609436 144.76989746 C210.78039818 144.70855011 205.39673539 143.55519669 199.3828125 138.28515625 C198.84398437 137.63417969 198.30515625 136.98320312 197.75 136.3125 C197.19570313 135.66410156 196.64140625 135.01570312 196.0703125 134.34765625 C193.41632679 130.4957905 192.37284554 127.02465217 192.39794922 122.36791992 C192.39810028 121.42732224 192.39825134 120.48672455 192.39840698 119.5176239 C192.40872955 118.5153627 192.41905212 117.5131015 192.4296875 116.48046875 C192.43393234 114.92625969 192.43393234 114.92625969 192.43826294 113.34065247 C192.44943546 110.03948293 192.47453495 106.73858719 192.5 103.4375 C192.51003357 101.19596747 192.51915876 98.95443067 192.52734375 96.71289062 C192.54936522 91.2251674 192.58281379 85.73760326 192.625 80.25 C180.04694417 78.58938246 167.74719702 77.95751383 157.28125 85.88671875 C150.40215776 91.5033831 142.03156786 99.03655285 140.00390625 107.99365234 C140.05355603 112.62260758 141.43251412 116.65901024 142.875 121.01953125 C145.35819166 128.67900717 145.21079824 136.35267968 145.125 144.3125 C145.11985382 145.05040771 145.11470764 145.78831543 145.10940552 146.54858398 C144.9058461 167.8215655 141.17511481 189.8552567 130.18164062 208.43237305 C129.42888379 210.26280777 129.42888379 210.26280777 130.24658203 212.11572266 C136.74464322 222.17701399 147.05616738 236.14537438 158.92718506 239.99694824 C169.90888931 242.35958148 181.53695135 241.41270445 192.625 240.25 C192.61611755 239.67894531 192.60723511 239.10789063 192.5980835 238.51953125 C192.5092496 232.54941874 192.44911694 226.5794955 192.40527344 220.60888672 C192.38521954 218.38387418 192.35796935 216.15891393 192.32324219 213.93408203 C192.27445066 210.72675635 192.25196838 207.52013049 192.234375 204.3125 C192.21372986 203.32572266 192.19308472 202.33894531 192.17181396 201.32226562 C192.1694439 193.94535594 193.68326439 188.60697065 198.58984375 183.0078125 C199.24082031 182.46898437 199.89179688 181.93015625 200.5625 181.375 C201.21089844 180.82070312 201.85929687 180.26640625 202.52734375 179.6953125 C206.54335022 176.92823169 210.11226086 176.00033305 214.95588684 175.98257446 C216.01138229 175.97404449 217.06687775 175.96551453 218.15435791 175.95672607 C219.30200623 175.95763245 220.44965454 175.95853882 221.63208008 175.95947266 C222.84890976 175.95275543 224.06573944 175.94603821 225.31944275 175.93911743 C228.65023259 175.92338872 231.98077305 175.91676321 235.3115828 175.91548586 C237.3953363 175.91406195 239.47906386 175.90978779 241.5628109 175.90449142 C248.84047473 175.8859993 256.11806541 175.87781965 263.39575195 175.87939453 C270.16626616 175.88059524 276.93646122 175.85950504 283.7068947 175.8279072 C289.53044208 175.80170272 295.35388552 175.791029 301.17749137 175.79230535 C304.650875 175.79281383 308.12397497 175.78719469 311.59729958 175.76594925 C315.47490372 175.74287768 319.35207484 175.75211331 323.22973633 175.76416016 C324.37131195 175.75292114 325.51288757 175.74168213 326.6890564 175.73010254 C334.46960182 175.79144989 339.85326461 176.94480331 345.8671875 182.21484375 C346.40601563 182.86582031 346.94484375 183.51679688 347.5 184.1875 C348.05429687 184.83589844 348.60859375 185.48429688 349.1796875 186.15234375 C353.08746992 191.82390905 352.92158455 197.11854191 352.91552734 203.78833008 C352.92224457 204.84910263 352.92896179 205.90987518 352.93588257 207.00279236 C352.95487519 210.50841969 352.9587875 214.01385567 352.9609375 217.51953125 C352.96736477 219.95944802 352.97409308 222.39936402 352.98110962 224.83927917 C352.99308572 229.95447577 352.99679011 235.06960482 352.99560547 240.18481445 C352.99540232 246.73183957 353.02269955 253.27843043 353.05714989 259.82535267 C353.07941358 264.86547323 353.08344315 269.90548922 353.08238602 274.94565392 C353.08474295 277.35892927 353.09357163 279.77220747 353.10905075 282.18543434 C353.1286981 285.56509213 353.12287664 288.94381268 353.11083984 292.32348633 C353.12207886 293.31545013 353.13331787 294.30741394 353.14489746 295.32943726 C353.07913511 302.61457206 351.50619673 307.96211347 346.66015625 313.4921875 C346.00917969 314.03101563 345.35820312 314.56984375 344.6875 315.125 C344.03910156 315.67929687 343.39070313 316.23359375 342.72265625 316.8046875 C338.70664978 319.57176831 335.13773914 320.49966695 330.29411316 320.51742554 C329.23861771 320.52595551 328.18312225 320.53448547 327.09564209 320.54327393 C325.94799377 320.54236755 324.80034546 320.54146118 323.61791992 320.54052734 C321.7926754 320.55060318 321.7926754 320.55060318 319.93055725 320.56088257 C316.59976741 320.57661128 313.26922695 320.58323679 309.9384172 320.58451414 C307.8546637 320.58593805 305.77093614 320.59021221 303.6871891 320.59550858 C296.40952527 320.6140007 289.13193459 320.62218035 281.85424805 320.62060547 C275.08373384 320.61940476 268.31353878 320.64049496 261.5431053 320.6720928 C255.71955792 320.69829728 249.89611448 320.708971 244.07250863 320.70769465 C240.599125 320.70718617 237.12602503 320.71280531 233.65270042 320.73405075 C229.77509628 320.75712232 225.89792516 320.74788669 222.02026367 320.73583984 C220.87868805 320.74707886 219.73711243 320.75831787 218.5609436 320.76989746 C210.78039818 320.70855011 205.39673539 319.55519669 199.3828125 314.28515625 C198.84398437 313.63417969 198.30515625 312.98320312 197.75 312.3125 C197.19570313 311.66410156 196.64140625 311.01570313 196.0703125 310.34765625 C193.41632679 306.4957905 192.37284554 303.02465217 192.39794922 298.36791992 C192.39810028 297.42732224 192.39825134 296.48672455 192.39840698 295.5176239 C192.40872955 294.5153627 192.41905212 293.5131015 192.4296875 292.48046875 C192.43393234 290.92625969 192.43393234 290.92625969 192.43826294 289.34065247 C192.44943546 286.03948293 192.47453495 282.73858719 192.5 279.4375 C192.51003357 277.19596747 192.51915876 274.95443067 192.52734375 272.71289062 C192.54936522 267.2251674 192.58281379 261.73760326 192.625 256.25 C191.40844727 256.39663086 190.19189453 256.54326172 188.93847656 256.69433594 C152.33215225 260.72043874 152.33215225 260.72043874 140.51626587 251.82330322 C132.50078034 244.96902108 125.78388232 236.77830634 119.625 228.25 C116.28513307 231.55123581 113.22771173 234.87984679 110.3125 238.5625 C99.98129342 251.24786677 87.07213839 262.41108973 72.625 270.25 C71.965 270.25 71.305 270.25 70.625 270.25 C75.60653161 279.12473197 81.06783246 287.58430096 86.74887085 296.02026367 C89.41247609 299.9767103 92.06291991 303.94196827 94.71484375 307.90625 C95.27563126 308.74401978 95.83641876 309.58178955 96.41419983 310.44494629 C102.92716079 320.18238704 109.37125539 329.96503432 115.8125 339.75 C117.02172148 341.58634904 118.23095002 343.42269342 119.44018555 345.2590332 C121.89996015 348.99486499 124.35927588 352.73099842 126.81835938 356.46728516 C132.75694121 365.48962779 138.70074433 374.50853023 144.64468384 383.52734375 C146.51690063 386.36830605 148.38873069 389.20952283 150.26049805 392.05078125 C151.41193413 393.79818531 152.56338207 395.54558155 153.71484375 397.29296875 C154.22609802 398.0692009 154.73735229 398.84543304 155.26409912 399.64518738 C156.23293117 401.11515084 157.20719955 402.58154885 158.18743896 404.04393005 C159.1971004 405.59334861 160.16370808 407.17126541 161.097229 408.76771545 C163.94741648 413.70944788 163.94741648 413.70944788 168.78466797 416.36352539 C169.88439941 416.35828857 170.98413086 416.35305176 172.1171875 416.34765625 C173.31601562 416.36376953 174.51484375 416.37988281 175.75 416.39648438 C176.9875 416.36876953 178.225 416.34105469 179.5 416.3125 C180.76070313 416.31958984 182.02140625 416.32667969 183.3203125 416.33398438 C186.42416479 416.34574139 189.52199852 416.31643386 192.625 416.25 C192.61611755 415.67894531 192.60723511 415.10789062 192.5980835 414.51953125 C192.5092496 408.54941874 192.44911694 402.5794955 192.40527344 396.60888672 C192.38521954 394.38387418 192.35796935 392.15891393 192.32324219 389.93408203 C192.27445066 386.72675635 192.25196838 383.52013049 192.234375 380.3125 C192.21372986 379.32572266 192.19308472 378.33894531 192.17181396 377.32226562 C192.1694439 369.94535594 193.68326439 364.60697065 198.58984375 359.0078125 C199.24082031 358.46898437 199.89179688 357.93015625 200.5625 357.375 C201.21089844 356.82070313 201.85929687 356.26640625 202.52734375 355.6953125 C206.54335022 352.92823169 210.11226086 352.00033305 214.95588684 351.98257446 C216.01138229 351.97404449 217.06687775 351.96551453 218.15435791 351.95672607 C219.30200623 351.95763245 220.44965454 351.95853882 221.63208008 351.95947266 C223.4573246 351.94939682 223.4573246 351.94939682 225.31944275 351.93911743 C228.65023259 351.92338872 231.98077305 351.91676321 235.3115828 351.91548586 C237.3953363 351.91406195 239.47906386 351.90978779 241.5628109 351.90449142 C248.84047473 351.8859993 256.11806541 351.87781965 263.39575195 351.87939453 C270.16626616 351.88059524 276.93646122 351.85950504 283.7068947 351.8279072 C289.53044208 351.80170272 295.35388552 351.791029 301.17749137 351.79230535 C304.650875 351.79281383 308.12397497 351.78719469 311.59729958 351.76594925 C315.47490372 351.74287768 319.35207484 351.75211331 323.22973633 351.76416016 C324.37131195 351.75292114 325.51288757 351.74168213 326.6890564 351.73010254 C334.46960182 351.79144989 339.85326461 352.94480331 345.8671875 358.21484375 C346.40601563 358.86582031 346.94484375 359.51679688 347.5 360.1875 C348.05429687 360.83589844 348.60859375 361.48429687 349.1796875 362.15234375 C353.08746992 367.82390905 352.92158455 373.11854191 352.91552734 379.78833008 C352.92224457 380.84910263 352.92896179 381.90987518 352.93588257 383.00279236 C352.95487519 386.50841969 352.9587875 390.01385567 352.9609375 393.51953125 C352.96736477 395.95944802 352.97409308 398.39936402 352.98110962 400.83927917 C352.99308572 405.95447577 352.99679011 411.06960482 352.99560547 416.18481445 C352.99540232 422.73183957 353.02269955 429.27843043 353.05714989 435.82535267 C353.07941358 440.86547323 353.08344315 445.90548922 353.08238602 450.94565392 C353.08474295 453.35892927 353.09357163 455.77220747 353.10905075 458.18543434 C353.1286981 461.56509213 353.12287664 464.94381268 353.11083984 468.32348633 C353.12207886 469.31545013 353.13331787 470.30741394 353.14489746 471.32943726 C353.07913511 478.61457206 351.50619673 483.96211347 346.66015625 489.4921875 C346.00917969 490.03101563 345.35820312 490.56984375 344.6875 491.125 C344.03910156 491.67929687 343.39070313 492.23359375 342.72265625 492.8046875 C338.70664978 495.57176831 335.13773914 496.49966695 330.29411316 496.51742554 C329.23861771 496.52595551 328.18312225 496.53448547 327.09564209 496.54327393 C325.94799377 496.54236755 324.80034546 496.54146118 323.61791992 496.54052734 C321.7926754 496.55060318 321.7926754 496.55060318 319.93055725 496.56088257 C316.59976741 496.57661128 313.26922695 496.58323679 309.9384172 496.58451414 C307.8546637 496.58593805 305.77093614 496.59021221 303.6871891 496.59550858 C296.40952527 496.6140007 289.13193459 496.62218035 281.85424805 496.62060547 C275.08373384 496.61940476 268.31353878 496.64049496 261.5431053 496.6720928 C255.71955792 496.69829728 249.89611448 496.708971 244.07250863 496.70769465 C240.599125 496.70718617 237.12602503 496.71280531 233.65270042 496.73405075 C229.77509628 496.75712232 225.89792516 496.74788669 222.02026367 496.73583984 C220.87868805 496.74707886 219.73711243 496.75831787 218.5609436 496.76989746 C210.78039818 496.70855011 205.39673539 495.55519669 199.3828125 490.28515625 C198.84398437 489.63417969 198.30515625 488.98320312 197.75 488.3125 C197.19570313 487.66410156 196.64140625 487.01570313 196.0703125 486.34765625 C193.41632679 482.4957905 192.37284554 479.02465217 192.39794922 474.36791992 C192.39810028 473.42732224 192.39825134 472.48672455 192.39840698 471.5176239 C192.40872955 470.5153627 192.41905212 469.5131015 192.4296875 468.48046875 C192.43393234 466.92625969 192.43393234 466.92625969 192.43826294 465.34065247 C192.44943546 462.03948293 192.47453495 458.73858719 192.5 455.4375 C192.51003357 453.19596747 192.51915876 450.95443067 192.52734375 448.71289062 C192.54936522 443.2251674 192.58281379 437.73760326 192.625 432.25 C191.54605469 432.30760498 190.46710938 432.36520996 189.35546875 432.42456055 C185.32346365 432.62479204 181.29188811 432.7503172 177.25634766 432.85424805 C175.51568565 432.90932002 173.77552697 432.9842122 172.03662109 433.07983398 C157.85371675 433.83977757 157.85371675 433.83977757 153.109375 430.45556641 C151.3715096 428.12030977 149.97817559 425.76755109 148.66012573 423.17514038 C147.01478101 420.11510673 145.06337997 417.26618208 143.14390564 414.37294006 C141.43415384 411.79347475 139.75356852 409.19690225 138.07861328 406.59472656 C134.74526138 401.4277316 131.37751308 396.28407438 127.99609375 391.1484375 C127.43856918 390.30156372 126.88104462 389.45468994 126.30662537 388.58215332 C124.55929206 385.9293013 122.8109633 383.27710737 121.0625 380.625 C120.45014496 379.69554565 119.83778992 378.76609131 119.20687866 377.80847168 C112.12324702 367.05822134 105.01825038 356.32272003 97.8671875 345.6171875 C97.23943924 344.67720917 96.61169098 343.73723083 95.96492004 342.76876831 C92.97651975 338.29553419 89.98481657 333.82455836 86.98803711 329.35693359 C81.11902177 320.59296443 75.39075417 311.76475538 69.83374023 302.79980469 C66.8923537 298.05821969 63.85935285 293.38309044 60.75 288.75 C60.20859375 287.91597656 59.6671875 287.08195312 59.109375 286.22265625 C58.58085937 285.43761719 58.05234375 284.65257812 57.5078125 283.84375 C57.04777832 283.14958984 56.58774414 282.45542969 56.11376953 281.74023438 C55.62247559 281.24845703 55.13118164 280.75667969 54.625 280.25 C50.76654023 280.25 49.07555534 280.83438755 45.625 282.25 C44.635 282.25 43.645 282.25 42.625 282.25 C42.34785156 282.96027344 42.07070312 283.67054688 41.78515625 284.40234375 C40.23529122 288.20655793 38.48517173 291.90820825 36.74609375 295.62890625 C31.12910981 308.76129728 35.86312172 324.05794201 38.6993103 337.33764076 C39.45341082 340.8754252 40.18782154 344.41681089 40.91723633 347.95976257 C42.99255688 358.02429159 45.09964724 368.08203408 47.22558594 378.13598633 C48.5305535 384.31412199 49.8107062 390.49701503 51.07699585 396.68318748 C51.55875806 399.01180769 52.04965494 401.33856108 52.5506897 403.66311073 C61.58211563 445.58457751 61.58211563 445.58457751 52.625 463.25 C52.16609375 464.20777344 51.7071875 465.16554688 51.234375 466.15234375 C43.52975577 481.25745251 31.32324318 489.7922731 15.46484375 495.359375 C3.38084347 498.16217466 -11.17219896 497.70001132 -22.375 492.25 C-23.33664063 491.79109375 -24.29828125 491.3321875 -25.2890625 490.859375 C-40.28832736 483.17781079 -48.88592898 471.07974117 -54.41137695 455.28804016 C-59.30048515 437.7704864 -54.28147818 417.49247236 -50.5625 400.23828125 C-50.06670838 397.84184921 -49.57351782 395.44487776 -49.08276367 393.04740906 C-47.80137387 386.81303258 -46.49335374 380.58460479 -45.17663574 374.35760498 C-43.06464555 364.35901827 -40.98369093 354.35411475 -38.92300415 344.3448391 C-38.20445095 340.88246013 -37.46781769 337.4242967 -36.72924805 333.96614075 C-32.12273233 312.33588414 -32.12273233 312.33588414 -37.375 291.25 C-37.60791748 290.60385742 -37.84083496 289.95771484 -38.08081055 289.29199219 C-39.80659585 285.01730153 -41.32142447 282.85824459 -45.61328125 281 C-47.29583981 280.39161724 -48.98801033 279.80934583 -50.6875 279.25 C-52.49722061 278.58995536 -54.30450829 277.92320412 -56.109375 277.25 C-57.00205078 276.92 -57.89472656 276.59 -58.81445312 276.25 C-92.27812986 263.18104311 -118.11031206 233.60974055 -132.5546875 201.51953125 C-140.50703931 183.24068314 -143.60940346 164.68366919 -143.625 144.875 C-143.62567474 144.10955872 -143.62634949 143.34411743 -143.62704468 142.55548096 C-143.61153477 131.50517967 -143.29161847 120.97525438 -140.375 110.25 C-140.19275879 109.5792041 -140.01051758 108.9084082 -139.82275391 108.21728516 C-132.51378957 81.90623477 -119.52603969 59.56773772 -100.375 40.25 C-99.52550781 39.38761719 -98.67601562 38.52523437 -97.80078125 37.63671875 C-71.58948599 12.46905853 -35.88619972 0.02825534 0 0 Z M-4.75 434.875 C-6.86206506 437.96186432 -6.98695145 439.5782913 -6.375 443.25 C-4.875 445.75 -4.875 445.75 -2.375 447.25 C1.2967087 447.86195145 2.91313568 447.73706506 6 445.625 C8.11206506 442.53813568 8.23695145 440.9217087 7.625 437.25 C6.125 434.75 6.125 434.75 3.625 433.25 C-0.0467087 432.63804855 -1.66313568 432.76293494 -4.75 434.875 Z " fill="#000000" transform="translate(151.375,7.75)"/>
<path d="M0 0 C1.06476563 0.51691406 2.12953125 1.03382812 3.2265625 1.56640625 C14.00260993 7.13656035 23.22530539 14.69810986 32 23 C32.82371094 23.75925781 33.64742187 24.51851562 34.49609375 25.30078125 C58.09393279 47.79419725 70.53199683 79.88311289 71.34375 112.1418457 C71.57038403 133.32327464 67.53021968 153.04251746 58 172 C57.67628418 172.64501465 57.35256836 173.2900293 57.01904297 173.95458984 C41.84912165 203.4846502 15.4704034 225.69554558 -15.62109375 236.94140625 C-26.20559419 240.25747517 -36.88004905 242.70156491 -48 243 C-48.73621582 243.02046387 -49.47243164 243.04092773 -50.23095703 243.06201172 C-60.97834143 243.32008545 -71.42716232 243.17202861 -82 241 C-82.69351563 240.85997559 -83.38703125 240.71995117 -84.1015625 240.57568359 C-108.09316416 235.54434378 -128.39836167 223.87309369 -146 207 C-147.22976562 205.86498047 -147.22976562 205.86498047 -148.484375 204.70703125 C-160.12867411 193.62324964 -168.07817125 180.39552816 -175 166 C-175.74056641 164.47052734 -175.74056641 164.47052734 -176.49609375 162.91015625 C-186.07081852 140.68844301 -188.03565633 113.55301691 -183 90 C-182.78996338 88.96842773 -182.78996338 88.96842773 -182.57568359 87.91601562 C-177.54689113 63.91567278 -165.87915763 43.60796409 -149 26 C-148.24332031 25.18015625 -147.48664063 24.3603125 -146.70703125 23.515625 C-109.30143586 -15.78160735 -47.77748045 -23.55109019 0 0 Z " fill="#68D4F2" transform="translate(209,37)"/>
<path d="M0 0 C1.70079964 -0.00832352 1.70079964 -0.00832352 3.43595886 -0.01681519 C7.18364735 -0.02862501 10.93013045 -0.00432053 14.67773438 0.02148438 C17.28177841 0.02319516 19.88582417 0.02313013 22.48986816 0.0213623 C27.94733302 0.02141584 33.40445119 0.04114814 38.86181641 0.07324219 C45.16545045 0.11013354 51.46863051 0.11891739 57.77235842 0.11194468 C63.84380714 0.10563272 69.91507565 0.11662028 75.98649597 0.13591003 C78.56690207 0.14294482 81.14732188 0.14606399 83.72773743 0.1452179 C87.33306708 0.14701417 90.93775069 0.16838292 94.54296875 0.1953125 C95.61117355 0.1923819 96.67937836 0.18945129 97.779953 0.18643188 C106.90331966 0.29165284 106.90331966 0.29165284 110.77148438 3.61523438 C111.90701348 5.88629259 111.90174032 7.13459827 111.91192627 9.65644836 C111.91763641 10.50180145 111.92334656 11.34715454 111.92922974 12.21812439 C111.93090652 13.61219261 111.93090652 13.61219261 111.93261719 15.03442383 C111.93758209 16.01179504 111.942547 16.98916626 111.94766235 17.99615479 C111.96230724 21.24028214 111.96909005 24.4843606 111.97460938 27.72851562 C111.98035916 29.978124 111.98611691 32.22773236 111.99188232 34.4773407 C112.00239911 39.19933298 112.00823726 43.9213082 112.01171875 48.64331055 C112.01720316 54.69627473 112.04122737 60.74901392 112.0696907 66.80190754 C112.08830802 71.45072591 112.09352222 76.09949001 112.09505463 80.74834251 C112.09808401 82.97988298 112.10612211 85.21142244 112.11923981 87.44292641 C112.13628016 90.56474573 112.13442474 93.68601446 112.12792969 96.80786133 C112.13714447 97.73116745 112.14635925 98.65447357 112.15585327 99.60575867 C112.12471589 104.37946247 112.01632795 107.81637208 108.77148438 111.61523438 C105.86800616 112.58306045 104.01610292 112.74516645 100.99586487 112.75567627 C100.01306549 112.76138641 99.03026611 112.76709656 98.01768494 112.77297974 C96.94071854 112.7740976 95.86375214 112.77521545 94.75415039 112.77636719 C93.05137939 112.78381454 93.05137939 112.78381454 91.31420898 112.79141235 C87.55126342 112.8060425 83.78835998 112.81283673 80.02539062 112.81835938 C77.4160919 112.82410925 74.8067932 112.829867 72.19749451 112.83563232 C67.42389864 112.84520158 62.65031189 112.85109996 57.87670761 112.85412908 C50.85054015 112.85861219 43.824567 112.87617395 36.79845864 112.90512967 C30.71211845 112.92934207 24.62585858 112.93707289 18.53947258 112.93880463 C15.94984821 112.9418375 13.36022479 112.94988723 10.77063179 112.96298981 C7.15300774 112.97999014 3.53586036 112.97818475 -0.08178711 112.97167969 C-1.15672928 112.98089447 -2.23167145 112.99010925 -3.33918762 112.99960327 C-4.32480682 112.99403412 -5.31042603 112.98846497 -6.32591248 112.98272705 C-7.18112708 112.98419361 -8.03634169 112.98566017 -8.91747189 112.98717117 C-11.77990091 112.52649504 -13.13669857 111.59799218 -15.22851562 109.61523438 C-16.13801059 106.88674949 -16.36113551 105.26278242 -16.38241577 102.45376587 C-16.39101624 101.60703812 -16.3996167 100.76031036 -16.40847778 99.88792419 C-16.41273773 98.96214066 -16.41699768 98.03635712 -16.42138672 97.08251953 C-16.42956421 96.10500229 -16.4377417 95.12748505 -16.44616699 94.12034607 C-16.47100461 90.88166925 -16.48753086 87.64303614 -16.50195312 84.40429688 C-16.5072768 83.29900005 -16.51260048 82.19370323 -16.51808548 81.05491257 C-16.54480704 75.20718835 -16.56418714 69.35948543 -16.57861328 63.51171875 C-16.59527943 57.46647921 -16.64007699 51.42178287 -16.69098473 45.37674904 C-16.72460178 40.73222206 -16.73618452 36.08782508 -16.74184036 31.44318771 C-16.74856566 29.21440849 -16.76382069 26.98563819 -16.78773117 24.75697708 C-16.81927247 21.6397765 -16.819436 18.52405587 -16.81201172 15.40673828 C-16.82841705 14.4850032 -16.84482239 13.56326813 -16.86172485 12.61360168 C-16.82130125 8.47152798 -16.54966517 6.15323292 -14.39382935 2.54171753 C-9.66029585 -0.33922046 -5.44415861 -0.06759678 0 0 Z " fill="#E5E8EC" transform="translate(376.228515625,375.384765625)"/>
<path d="M0 0 C1.70079964 -0.00832352 1.70079964 -0.00832352 3.43595886 -0.01681519 C7.18364735 -0.02862501 10.93013045 -0.00432053 14.67773438 0.02148438 C17.28177841 0.02319516 19.88582417 0.02313013 22.48986816 0.0213623 C27.94733302 0.02141584 33.40445119 0.04114814 38.86181641 0.07324219 C45.16545045 0.11013354 51.46863051 0.11891739 57.77235842 0.11194468 C63.84380714 0.10563272 69.91507565 0.11662028 75.98649597 0.13591003 C78.56690207 0.14294482 81.14732188 0.14606399 83.72773743 0.1452179 C87.33306708 0.14701417 90.93775069 0.16838292 94.54296875 0.1953125 C95.61117355 0.1923819 96.67937836 0.18945129 97.779953 0.18643188 C106.90331966 0.29165284 106.90331966 0.29165284 110.77148438 3.61523438 C111.90701348 5.88629259 111.90174032 7.13459827 111.91192627 9.65644836 C111.91763641 10.50180145 111.92334656 11.34715454 111.92922974 12.21812439 C111.93090652 13.61219261 111.93090652 13.61219261 111.93261719 15.03442383 C111.93758209 16.01179504 111.942547 16.98916626 111.94766235 17.99615479 C111.96230724 21.24028214 111.96909005 24.4843606 111.97460938 27.72851562 C111.98035916 29.978124 111.98611691 32.22773236 111.99188232 34.4773407 C112.00239911 39.19933298 112.00823726 43.9213082 112.01171875 48.64331055 C112.01720316 54.69627473 112.04122737 60.74901392 112.0696907 66.80190754 C112.08830802 71.45072591 112.09352222 76.09949001 112.09505463 80.74834251 C112.09808401 82.97988298 112.10612211 85.21142244 112.11923981 87.44292641 C112.13628016 90.56474573 112.13442474 93.68601446 112.12792969 96.80786133 C112.13714447 97.73116745 112.14635925 98.65447357 112.15585327 99.60575867 C112.12471589 104.37946247 112.01632795 107.81637208 108.77148438 111.61523438 C105.86800616 112.58306045 104.01610292 112.74516645 100.99586487 112.75567627 C100.01306549 112.76138641 99.03026611 112.76709656 98.01768494 112.77297974 C96.94071854 112.7740976 95.86375214 112.77521545 94.75415039 112.77636719 C93.05137939 112.78381454 93.05137939 112.78381454 91.31420898 112.79141235 C87.55126342 112.8060425 83.78835998 112.81283673 80.02539062 112.81835938 C77.4160919 112.82410925 74.8067932 112.829867 72.19749451 112.83563232 C67.42389864 112.84520158 62.65031189 112.85109996 57.87670761 112.85412908 C50.85054015 112.85861219 43.824567 112.87617395 36.79845864 112.90512967 C30.71211845 112.92934207 24.62585858 112.93707289 18.53947258 112.93880463 C15.94984821 112.9418375 13.36022479 112.94988723 10.77063179 112.96298981 C7.15300774 112.97999014 3.53586036 112.97818475 -0.08178711 112.97167969 C-1.15672928 112.98089447 -2.23167145 112.99010925 -3.33918762 112.99960327 C-4.32480682 112.99403412 -5.31042603 112.98846497 -6.32591248 112.98272705 C-7.18112708 112.98419361 -8.03634169 112.98566017 -8.91747189 112.98717117 C-11.77990091 112.52649504 -13.13669857 111.59799218 -15.22851562 109.61523438 C-16.13801059 106.88674949 -16.36113551 105.26278242 -16.38241577 102.45376587 C-16.39101624 101.60703812 -16.3996167 100.76031036 -16.40847778 99.88792419 C-16.41273773 98.96214066 -16.41699768 98.03635712 -16.42138672 97.08251953 C-16.42956421 96.10500229 -16.4377417 95.12748505 -16.44616699 94.12034607 C-16.47100461 90.88166925 -16.48753086 87.64303614 -16.50195312 84.40429688 C-16.5072768 83.29900005 -16.51260048 82.19370323 -16.51808548 81.05491257 C-16.54480704 75.20718835 -16.56418714 69.35948543 -16.57861328 63.51171875 C-16.59527943 57.46647921 -16.64007699 51.42178287 -16.69098473 45.37674904 C-16.72460178 40.73222206 -16.73618452 36.08782508 -16.74184036 31.44318771 C-16.74856566 29.21440849 -16.76382069 26.98563819 -16.78773117 24.75697708 C-16.81927247 21.6397765 -16.819436 18.52405587 -16.81201172 15.40673828 C-16.82841705 14.4850032 -16.84482239 13.56326813 -16.86172485 12.61360168 C-16.82130125 8.47152798 -16.54966517 6.15323292 -14.39382935 2.54171753 C-9.66029585 -0.33922046 -5.44415861 -0.06759678 0 0 Z " fill="#E5E8EC" transform="translate(376.228515625,199.384765625)"/>
<path d="M0 0 C1.70079964 -0.00832352 1.70079964 -0.00832352 3.43595886 -0.01681519 C7.18364735 -0.02862501 10.93013045 -0.00432053 14.67773438 0.02148438 C17.28177841 0.02319516 19.88582417 0.02313013 22.48986816 0.0213623 C27.94733302 0.02141584 33.40445119 0.04114814 38.86181641 0.07324219 C45.16545045 0.11013354 51.46863051 0.11891739 57.77235842 0.11194468 C63.84380714 0.10563272 69.91507565 0.11662028 75.98649597 0.13591003 C78.56690207 0.14294482 81.14732188 0.14606399 83.72773743 0.1452179 C87.33306708 0.14701417 90.93775069 0.16838292 94.54296875 0.1953125 C95.61117355 0.1923819 96.67937836 0.18945129 97.779953 0.18643188 C106.90331966 0.29165284 106.90331966 0.29165284 110.77148438 3.61523438 C111.90701348 5.88629259 111.90174032 7.13459827 111.91192627 9.65644836 C111.91763641 10.50180145 111.92334656 11.34715454 111.92922974 12.21812439 C111.93090652 13.61219261 111.93090652 13.61219261 111.93261719 15.03442383 C111.93758209 16.01179504 111.942547 16.98916626 111.94766235 17.99615479 C111.96230724 21.24028214 111.96909005 24.4843606 111.97460938 27.72851562 C111.98035916 29.978124 111.98611691 32.22773236 111.99188232 34.4773407 C112.00239911 39.19933298 112.00823726 43.9213082 112.01171875 48.64331055 C112.01720316 54.69627473 112.04122737 60.74901392 112.0696907 66.80190754 C112.08830802 71.45072591 112.09352222 76.09949001 112.09505463 80.74834251 C112.09808401 82.97988298 112.10612211 85.21142244 112.11923981 87.44292641 C112.13628016 90.56474573 112.13442474 93.68601446 112.12792969 96.80786133 C112.13714447 97.73116745 112.14635925 98.65447357 112.15585327 99.60575867 C112.12471589 104.37946247 112.01632795 107.81637208 108.77148438 111.61523438 C105.86800616 112.58306045 104.01610292 112.74516645 100.99586487 112.75567627 C100.01306549 112.76138641 99.03026611 112.76709656 98.01768494 112.77297974 C96.94071854 112.7740976 95.86375214 112.77521545 94.75415039 112.77636719 C93.05137939 112.78381454 93.05137939 112.78381454 91.31420898 112.79141235 C87.55126342 112.8060425 83.78835998 112.81283673 80.02539062 112.81835938 C77.4160919 112.82410925 74.8067932 112.829867 72.19749451 112.83563232 C67.42389864 112.84520158 62.65031189 112.85109996 57.87670761 112.85412908 C50.85054015 112.85861219 43.824567 112.87617395 36.79845864 112.90512967 C30.71211845 112.92934207 24.62585858 112.93707289 18.53947258 112.93880463 C15.94984821 112.9418375 13.36022479 112.94988723 10.77063179 112.96298981 C7.15300774 112.97999014 3.53586036 112.97818475 -0.08178711 112.97167969 C-1.15672928 112.98089447 -2.23167145 112.99010925 -3.33918762 112.99960327 C-4.32480682 112.99403412 -5.31042603 112.98846497 -6.32591248 112.98272705 C-7.18112708 112.98419361 -8.03634169 112.98566017 -8.91747189 112.98717117 C-11.77990091 112.52649504 -13.13669857 111.59799218 -15.22851562 109.61523438 C-16.13801059 106.88674949 -16.36113551 105.26278242 -16.38241577 102.45376587 C-16.39101624 101.60703812 -16.3996167 100.76031036 -16.40847778 99.88792419 C-16.41273773 98.96214066 -16.41699768 98.03635712 -16.42138672 97.08251953 C-16.42956421 96.10500229 -16.4377417 95.12748505 -16.44616699 94.12034607 C-16.47100461 90.88166925 -16.48753086 87.64303614 -16.50195312 84.40429688 C-16.5072768 83.29900005 -16.51260048 82.19370323 -16.51808548 81.05491257 C-16.54480704 75.20718835 -16.56418714 69.35948543 -16.57861328 63.51171875 C-16.59527943 57.46647921 -16.64007699 51.42178287 -16.69098473 45.37674904 C-16.72460178 40.73222206 -16.73618452 36.08782508 -16.74184036 31.44318771 C-16.74856566 29.21440849 -16.76382069 26.98563819 -16.78773117 24.75697708 C-16.81927247 21.6397765 -16.819436 18.52405587 -16.81201172 15.40673828 C-16.82841705 14.4850032 -16.84482239 13.56326813 -16.86172485 12.61360168 C-16.82130125 8.47152798 -16.54966517 6.15323292 -14.39382935 2.54171753 C-9.66029585 -0.33922046 -5.44415861 -0.06759678 0 0 Z " fill="#E5E8EC" transform="translate(376.228515625,23.384765625)"/>
<path d="M0 0 C1.06476563 0.51691406 2.12953125 1.03382812 3.2265625 1.56640625 C14.00260993 7.13656035 23.22530539 14.69810986 32 23 C32.82371094 23.75925781 33.64742187 24.51851562 34.49609375 25.30078125 C58.09393279 47.79419725 70.53199683 79.88311289 71.34375 112.1418457 C71.57038403 133.32327464 67.53021968 153.04251746 58 172 C57.67628418 172.64501465 57.35256836 173.2900293 57.01904297 173.95458984 C41.84912165 203.4846502 15.4704034 225.69554558 -15.62109375 236.94140625 C-26.20559419 240.25747517 -36.88004905 242.70156491 -48 243 C-48.73621582 243.02046387 -49.47243164 243.04092773 -50.23095703 243.06201172 C-60.97834143 243.32008545 -71.42716232 243.17202861 -82 241 C-82.69351563 240.85997559 -83.38703125 240.71995117 -84.1015625 240.57568359 C-108.09316416 235.54434378 -128.39836167 223.87309369 -146 207 C-147.22976562 205.86498047 -147.22976562 205.86498047 -148.484375 204.70703125 C-160.12867411 193.62324964 -168.07817125 180.39552816 -175 166 C-175.74056641 164.47052734 -175.74056641 164.47052734 -176.49609375 162.91015625 C-186.07081852 140.68844301 -188.03565633 113.55301691 -183 90 C-182.78996338 88.96842773 -182.78996338 88.96842773 -182.57568359 87.91601562 C-177.54689113 63.91567278 -165.87915763 43.60796409 -149 26 C-148.24332031 25.18015625 -147.48664063 24.3603125 -146.70703125 23.515625 C-109.30143586 -15.78160735 -47.77748045 -23.55109019 0 0 Z M-80 5 C-81.216875 5.24878906 -82.43375 5.49757813 -83.6875 5.75390625 C-110.47314346 12.2923829 -136.14027491 29.51571777 -151 53 C-157.69077473 64.20910145 -163.0988748 75.23504911 -166 88 C-166.33902344 89.11632812 -166.67804688 90.23265625 -167.02734375 91.3828125 C-171.28372561 107.21176672 -170.45626321 126.33555962 -166 142 C-165.80664062 142.69222656 -165.61328125 143.38445312 -165.4140625 144.09765625 C-160.88292215 159.95664746 -154.06384355 174.63075131 -143 187 C-142.30261719 187.82757813 -141.60523438 188.65515625 -140.88671875 189.5078125 C-125.03773 207.91853833 -103.5056628 219.73240214 -80 225 C-79.1028125 225.22558594 -78.205625 225.45117188 -77.28125 225.68359375 C-50.48978847 231.67859672 -20.08626507 224.44090079 2.95605469 210.33789062 C30.25802376 192.46703653 47.74082794 164.93815495 54.4375 133.1875 C58.27379619 102.49713047 51.41698607 72.18561756 32.625 47.375 C31.43092903 45.90496596 30.22196547 44.44692983 29 43 C28.32195312 42.18789062 27.64390625 41.37578125 26.9453125 40.5390625 C9.43222779 20.28371542 -17.94110753 5.05035364 -45 3 C-49.02109355 2.8422669 -53.03854404 2.77848873 -57.0625 2.75 C-58.06796875 2.74057373 -59.0734375 2.73114746 -60.109375 2.72143555 C-66.94338406 2.75102725 -73.3253398 3.56172948 -80 5 Z " fill="#F7D36E" transform="translate(209,37)"/>
<path d="M0 0 C1.03833984 0.29003906 1.03833984 0.29003906 2.09765625 0.5859375 C17.95664746 5.11707785 32.63075131 11.93615645 45 23 C45.82757813 23.69738281 46.65515625 24.39476563 47.5078125 25.11328125 C65.79758021 40.85814244 77.947314 62.53254845 83 86 C83.17732666 86.82081055 83.35465332 87.64162109 83.53735352 88.48730469 C84.9022437 95.28320649 85.3517831 101.826073 85.3125 108.75 C85.30686035 109.80203613 85.3012207 110.85407227 85.29541016 111.93798828 C85.16546546 120.31491799 84.30182562 127.90873417 82 136 C81.70996094 137.03833984 81.70996094 137.03833984 81.4140625 138.09765625 C72.73981036 168.45753875 53.8841558 192.57121648 26.1875 208 C11.79621542 215.66593356 -3.73617806 220.19426937 -20 221 C-21.09248047 221.07154297 -21.09248047 221.07154297 -22.20703125 221.14453125 C-50.10327604 222.83083275 -77.75314833 213.08997387 -99 195 C-99.94746094 194.19820312 -100.89492187 193.39640625 -101.87109375 192.5703125 C-120.13776908 176.71533122 -130.99412659 156.23767842 -137 133 C-137.26554687 132.00484375 -137.53109375 131.0096875 -137.8046875 129.984375 C-139.28362925 123.05563419 -139.19532431 115.99334376 -139.25 108.9375 C-139.25950684 107.93178955 -139.26901367 106.9260791 -139.27880859 105.88989258 C-139.2486524 99.05616426 -138.438219 92.67442112 -137 86 C-136.75121094 84.783125 -136.50242188 83.56625 -136.24609375 82.3125 C-129.31148718 53.90406344 -111.36426 29.61585224 -86.8125 13.9375 C-60.7280026 -1.60349728 -29.81996701 -8.48326648 0 0 Z M-97 43 C-97.73089844 43.71800781 -98.46179688 44.43601562 -99.21484375 45.17578125 C-116.03217772 62.85895816 -123.55739198 87.2380344 -123.3515625 111.23217773 C-122.65680511 137.80906027 -111.67403875 160.5577769 -93 179 C-92.32324219 179.67546875 -91.64648438 180.3509375 -90.94921875 181.046875 C-72.24913155 198.50562879 -47.44597477 206.24163926 -22.2109375 205.3828125 C3.42810659 203.86452274 25.02995792 192.94380844 43 175 C43.72832031 174.28328125 44.45664063 173.5665625 45.20703125 172.828125 C62.08493067 155.11798202 69.57847635 130.09922642 69.41967773 106.05102539 C68.67268357 79.45467059 57.4610908 57.72748461 39 39 C38.28199219 38.26910156 37.56398437 37.53820312 36.82421875 36.78515625 C19.09332691 19.92244368 -5.88908004 12.42144644 -29.94897461 12.58032227 C-56.54532941 13.32731643 -78.27251539 24.5389092 -97 43 Z " fill="#020302" transform="translate(179,43)"/>
<path d="M0 0 C11.88 0 23.76 0 36 0 C37.08539063 5.52234375 38.17078125 11.0446875 39.2890625 16.734375 C39.9906277 20.29822825 40.69233403 23.86205262 41.39453125 27.42578125 C42.5015015 33.04384574 43.60803503 38.66199296 44.71142578 44.28076172 C45.77640883 49.70330589 46.84432834 55.12526622 47.9140625 60.546875 C48.1758964 61.87538136 48.1758964 61.87538136 48.44301987 63.23072624 C50.89533283 75.65676887 53.44020998 88.0558502 56.23794556 100.40948486 C59.5318799 115.25522444 59.4855268 129.53164647 51.25 142.875 C44.23683222 152.40034728 34.78109745 158.17063704 23 160 C11.01671989 161.12594578 1.09101528 158.24620507 -8.26171875 150.578125 C-16.64805477 142.96446264 -21.28848001 133.25278562 -22.2668457 121.90490723 C-22.61573799 108.7737499 -19.86579503 96.39479113 -17.1875 83.59375 C-16.69289116 81.17308905 -16.19966892 78.75214441 -15.70776367 76.33093262 C-14.41949529 70.00876817 -13.11262508 63.69059425 -11.80163574 57.37310791 C-10.46311215 50.9060231 -9.1425035 44.43528369 -7.8203125 37.96484375 C-5.23090468 25.30627184 -2.62015227 12.65224401 0 0 Z M12.625 114.625 C10.51293494 117.71186432 10.38804855 119.3282913 11 123 C12.5 125.5 12.5 125.5 15 127 C18.6717087 127.61195145 20.28813568 127.48706506 23.375 125.375 C25.48706506 122.28813568 25.61195145 120.6717087 25 117 C23.5 114.5 23.5 114.5 21 113 C17.3282913 112.38804855 15.71186432 112.51293494 12.625 114.625 Z " fill="#949DA8" transform="translate(134,328)"/>
<path d="M0 0 C6.50099074 3.68128391 11.87819747 8.78320492 13.9453125 16.1015625 C15.20908545 24.11749375 13.55801943 30.4620601 8.9453125 37.1015625 C4.23417819 42.52165392 -1.40366726 45.500713 -8.50390625 46.41796875 C-14.535995 46.70433131 -19.18658897 45.7526364 -24.0546875 42.1015625 C-30.68913654 35.90235214 -34.00272204 30.86864646 -34.4296875 21.7265625 C-34.25680824 15.00246918 -32.59983783 10.77492003 -27.9609375 5.90234375 C-19.7156089 -1.75206963 -10.78488932 -4.67199659 0 0 Z " fill="#010203" transform="translate(226.0546875,129.8984375)"/>
<path d="M0 0 C6.50099074 3.68128391 11.87819747 8.78320492 13.9453125 16.1015625 C15.20908545 24.11749375 13.55801943 30.4620601 8.9453125 37.1015625 C4.23417819 42.52165392 -1.40366726 45.500713 -8.50390625 46.41796875 C-14.535995 46.70433131 -19.18658897 45.7526364 -24.0546875 42.1015625 C-30.68913654 35.90235214 -34.00272204 30.86864646 -34.4296875 21.7265625 C-34.25680824 15.00246918 -32.59983783 10.77492003 -27.9609375 5.90234375 C-19.7156089 -1.75206963 -10.78488932 -4.67199659 0 0 Z " fill="#010203" transform="translate(162.0546875,129.8984375)"/>
<path d="M0 0 C6.50099074 3.68128391 11.87819747 8.78320492 13.9453125 16.1015625 C15.20908545 24.11749375 13.55801943 30.4620601 8.9453125 37.1015625 C4.23417819 42.52165392 -1.40366726 45.500713 -8.50390625 46.41796875 C-14.535995 46.70433131 -19.18658897 45.7526364 -24.0546875 42.1015625 C-30.68913654 35.90235214 -34.00272204 30.86864646 -34.4296875 21.7265625 C-34.25680824 15.00246918 -32.59983783 10.77492003 -27.9609375 5.90234375 C-19.7156089 -1.75206963 -10.78488932 -4.67199659 0 0 Z " fill="#010203" transform="translate(98.0546875,129.8984375)"/>
<path d="M0 0 C6.50099074 3.68128391 11.87819747 8.78320492 13.9453125 16.1015625 C15.20908545 24.11749375 13.55801943 30.4620601 8.9453125 37.1015625 C4.23417819 42.52165392 -1.40366726 45.500713 -8.50390625 46.41796875 C-14.535995 46.70433131 -19.18658897 45.7526364 -24.0546875 42.1015625 C-30.68913654 35.90235214 -34.00272204 30.86864646 -34.4296875 21.7265625 C-34.25680824 15.00246918 -32.59983783 10.77492003 -27.9609375 5.90234375 C-19.7156089 -1.75206963 -10.78488932 -4.67199659 0 0 Z M-15.4296875 16.7265625 C-17.54175256 19.81342682 -17.66663895 21.4298538 -17.0546875 25.1015625 C-15.5546875 27.6015625 -15.5546875 27.6015625 -13.0546875 29.1015625 C-9.3829788 29.71351395 -7.76655182 29.58862756 -4.6796875 27.4765625 C-2.56762244 24.38969818 -2.44273605 22.7732712 -3.0546875 19.1015625 C-4.5546875 16.6015625 -4.5546875 16.6015625 -7.0546875 15.1015625 C-10.7263962 14.48961105 -12.34282318 14.61449744 -15.4296875 16.7265625 Z " fill="#010101" transform="translate(162.0546875,425.8984375)"/>
<path d="M0 0 C31.68 0 63.36 0 96 0 C96 5.28 96 10.56 96 16 C64.32 16 32.64 16 0 16 C0 10.72 0 5.44 0 0 Z " fill="#000000" transform="translate(376,456)"/>
<path d="M0 0 C31.68 0 63.36 0 96 0 C96 5.28 96 10.56 96 16 C64.32 16 32.64 16 0 16 C0 10.72 0 5.44 0 0 Z " fill="#000000" transform="translate(376,392)"/>
<path d="M0 0 C31.68 0 63.36 0 96 0 C96 5.28 96 10.56 96 16 C64.32 16 32.64 16 0 16 C0 10.72 0 5.44 0 0 Z " fill="#000000" transform="translate(376,248)"/>
<path d="M0 0 C31.68 0 63.36 0 96 0 C96 5.28 96 10.56 96 16 C64.32 16 32.64 16 0 16 C0 10.72 0 5.44 0 0 Z " fill="#000000" transform="translate(376,216)"/>
<path d="M0 0 C31.68 0 63.36 0 96 0 C96 5.28 96 10.56 96 16 C64.32 16 32.64 16 0 16 C0 10.72 0 5.44 0 0 Z " fill="#000000" transform="translate(376,104)"/>
<path d="M0 0 C31.68 0 63.36 0 96 0 C96 5.28 96 10.56 96 16 C64.32 16 32.64 16 0 16 C0 10.72 0 5.44 0 0 Z " fill="#000000" transform="translate(376,40)"/>
<path d="M0 0 C21.12 0 42.24 0 64 0 C64 5.28 64 10.56 64 16 C42.88 16 21.76 16 0 16 C0 10.72 0 5.44 0 0 Z " fill="#000000" transform="translate(376,424)"/>
<path d="M0 0 C21.12 0 42.24 0 64 0 C64 5.28 64 10.56 64 16 C42.88 16 21.76 16 0 16 C0 10.72 0 5.44 0 0 Z " fill="#000000" transform="translate(376,280)"/>
<path d="M0 0 C21.12 0 42.24 0 64 0 C64 5.28 64 10.56 64 16 C42.88 16 21.76 16 0 16 C0 10.72 0 5.44 0 0 Z " fill="#000000" transform="translate(408,72)"/>
<path d="M0 0 C0.98750244 0.16298584 1.97500488 0.32597168 2.99243164 0.49389648 C7.03563104 1.06903271 11.04319414 1.12740161 15.12109375 1.09765625 C16.23823509 1.09553383 16.23823509 1.09553383 17.37794495 1.09336853 C19.73117273 1.08781989 22.0843015 1.07527733 24.4375 1.0625 C26.04361841 1.05747835 27.64973832 1.05291661 29.25585938 1.04882812 C33.17061043 1.03786735 37.08528849 1.02063884 41 1 C40.86722656 1.64066406 40.73445313 2.28132813 40.59765625 2.94140625 C40.42105469 3.80636719 40.24445313 4.67132813 40.0625 5.5625 C39.88847656 6.40941406 39.71445313 7.25632812 39.53515625 8.12890625 C38.92498666 11.40244382 38.47092155 14.70354917 38 18 C26.78 18 15.56 18 4 18 C3.01 13.38 2.02 8.76 1 4 C0.67 2.68 0.34 1.36 0 0 Z " fill="#C9CED6" transform="translate(131,294)"/>
<path d="M0 0 C5.28 0 10.56 0 16 0 C16 5.28 16 10.56 16 16 C10.72 16 5.44 16 0 16 C0 10.72 0 5.44 0 0 Z " fill="#000000" transform="translate(456,424)"/>
<path d="M0 0 C5.28 0 10.56 0 16 0 C16 5.28 16 10.56 16 16 C10.72 16 5.44 16 0 16 C0 10.72 0 5.44 0 0 Z " fill="#000000" transform="translate(456,280)"/>
<path d="M0 0 C5.28 0 10.56 0 16 0 C16 5.28 16 10.56 16 16 C10.72 16 5.44 16 0 16 C0 10.72 0 5.44 0 0 Z " fill="#000000" transform="translate(376,72)"/>
<path d="M0 0 C4.0743356 0.84881992 5.54405875 2.30225596 8 5.625 C8.625 8.625 8.625 8.625 8 11.625 C5.54405875 14.94774404 4.0743356 16.40118008 0 17.25 C-4.0743356 16.40118008 -5.54405875 14.94774404 -8 11.625 C-8.625 8.625 -8.625 8.625 -8 5.625 C-5.54405875 2.30225596 -4.0743356 0.84881992 0 0 Z " fill="#F27B68" transform="translate(216,143.375)"/>
<path d="M0 0 C4.0743356 0.84881992 5.54405875 2.30225596 8 5.625 C8.625 8.625 8.625 8.625 8 11.625 C5.54405875 14.94774404 4.0743356 16.40118008 0 17.25 C-4.0743356 16.40118008 -5.54405875 14.94774404 -8 11.625 C-8.625 8.625 -8.625 8.625 -8 5.625 C-5.54405875 2.30225596 -4.0743356 0.84881992 0 0 Z " fill="#F27B68" transform="translate(152,143.375)"/>
<path d="M0 0 C4.0743356 0.84881992 5.54405875 2.30225596 8 5.625 C8.625 8.625 8.625 8.625 8 11.625 C5.54405875 14.94774404 4.0743356 16.40118008 0 17.25 C-4.0743356 16.40118008 -5.54405875 14.94774404 -8 11.625 C-8.625 8.625 -8.625 8.625 -8 5.625 C-5.54405875 2.30225596 -4.0743356 0.84881992 0 0 Z " fill="#F27B68" transform="translate(88,143.375)"/>
</svg>
